<?xml version="1.0" encoding="utf-8"?>
<!-- Generator: Adobe Illustrator 21.1.0, SVG Export Plug-In . SVG Version: 6.00 Build 0)  -->
<svg version="1.1" id="Layer_1" xmlns="http://www.w3.org/2000/svg" xmlns:xlink="http://www.w3.org/1999/xlink" x="0px" y="0px"
	 viewBox="0 0 1800 512" style="enable-background:new 0 0 1800 512;" xml:space="preserve">
<style type="text/css">
	.st0{fill:none;}
	.st1{fill:#B0B2B5;}
	.st2{fill:#898B8D;}
	.st3{fill:url(#SVGID_1_);stroke:#000000;stroke-width:8;stroke-linecap:round;stroke-linejoin:round;stroke-miterlimit:10;}
	.st4{fill:#00ADEE;}
	.st5{fill:url(#SVGID_2_);stroke:#000000;stroke-width:8;stroke-linecap:round;stroke-linejoin:round;stroke-miterlimit:10;}
	.st6{fill:#FFDC94;stroke:#000000;stroke-width:8;stroke-linecap:round;stroke-linejoin:round;stroke-miterlimit:10;}
	.st7{fill:#F89E1C;stroke:#0E0808;stroke-width:8;stroke-linecap:round;stroke-linejoin:round;stroke-miterlimit:10;}
	.st8{fill:#F89E1C;stroke:#000000;stroke-width:8;stroke-linecap:round;stroke-linejoin:round;stroke-miterlimit:10;}
	.st9{fill:#FDC164;stroke:#000000;stroke-width:8;stroke-linecap:round;stroke-linejoin:round;stroke-miterlimit:10;}
	.st10{fill:#FFFFFF;stroke:#000000;stroke-width:12.5987;stroke-linecap:round;stroke-linejoin:round;stroke-miterlimit:10;}
	.st11{fill:none;stroke:#000000;stroke-width:8;stroke-linecap:round;stroke-linejoin:round;stroke-miterlimit:10;}
	.st12{fill:#FCB415;stroke:#000000;stroke-width:8;stroke-miterlimit:10;}
	.st13{fill:#FFDC94;}
	.st14{fill:#FFFFFF;}
	.st15{fill:url(#New_Pattern_Swatch_2);stroke:url(#New_Pattern_Swatch_2);stroke-miterlimit:10;}
	.st16{fill:none;stroke:#FF00FF;stroke-miterlimit:10;}
	.st17{fill:none;stroke:#C1272D;stroke-miterlimit:10;}
</style>
<pattern  width="100" height="100" patternUnits="userSpaceOnUse" id="New_Pattern_Swatch_14" viewBox="0 -100 100 100" style="overflow:visible;">
	<g>
		<rect y="-100" class="st0" width="100" height="100"/>
		<rect y="-100" class="st1" width="100" height="100"/>
	</g>
</pattern>
<pattern  width="100" height="100" patternUnits="userSpaceOnUse" id="New_Pattern_Swatch_2" viewBox="0 -100 100 100" style="overflow:visible;">
	<g>
		<rect y="-100" class="st0" width="100" height="100"/>
		<rect y="-100" class="st2" width="100" height="100"/>
	</g>
</pattern>
<pattern  id="SVGID_1_" xlink:href="#New_Pattern_Swatch_14" patternTransform="matrix(1 0 0 1 -134 -63)">
</pattern>
<polygon class="st3" points="1210.3,194.6 1210.3,169.4 1347.9,126.3 1379.2,89.7 1492.6,89.7 1462.8,128.9 1417.9,128.9 
	1409.2,147.8 1433.1,194.6 "/>
<circle class="st4" cx="463.6" cy="174.3" r="4.2"/>
<circle class="st4" cx="588.8" cy="156.7" r="4.2"/>
<circle class="st4" cx="750.5" cy="191.8" r="5.2"/>
<circle class="st4" cx="693.7" cy="352" r="5.2"/>
<ellipse transform="matrix(0.9937 -0.1118 0.1118 0.9937 -3.6735 101.0658)" class="st4" cx="899.2" cy="83.3" rx="4.2" ry="4.2"/>
<ellipse transform="matrix(0.9937 -0.1118 0.1118 0.9937 -31.9072 113.1015)" class="st4" cx="992.4" cy="341" rx="4.2" ry="4.2"/>
<ellipse transform="matrix(0.9937 -0.1118 0.1118 0.9937 -28.7325 100.5233)" class="st4" cx="881.9" cy="306.4" rx="4.2" ry="4.2"/>
<ellipse transform="matrix(0.9937 -0.1118 0.1118 0.9937 -15.4494 27.9608)" class="st4" cx="241.6" cy="151.7" rx="4.2" ry="4.2"/>
<circle class="st4" cx="1115.3" cy="94.6" r="4.2"/>
<ellipse transform="matrix(0.9813 -0.1926 0.1926 0.9813 -35.8871 281.2126)" class="st4" cx="1428.3" cy="325.2" rx="4.2" ry="4.2"/>
<circle class="st4" cx="1293.9" cy="326.6" r="4.2"/>
<circle class="st4" cx="1380.3" cy="199.8" r="5.2"/>
<pattern  id="SVGID_2_" xlink:href="#New_Pattern_Swatch_14" patternTransform="matrix(1 0 0 1 -134 -63)">
</pattern>
<path class="st5" d="M625.2,334.2l43.9,89.6h242.3c0,0,121.8-102,228.6-126.5C1140,297.2,705,285.5,625.2,334.2z"/>
<rect x="190.3" y="154.7" class="st6" width="173" height="64"/>
<rect x="363.3" y="154.7" class="st7" width="167" height="64"/>
<rect x="530.3" y="154.7" class="st8" width="174" height="64"/>
<rect x="704.3" y="154.7" class="st8" width="167" height="64"/>
<rect x="871.3" y="154.7" class="st9" width="168" height="64"/>
<rect x="1039.3" y="154.7" class="st8" width="171" height="64"/>
<rect x="871.3" y="96.7" class="st9" width="168" height="58"/>
<path class="st10" d="M236.1,173.8l47.3,21.6h1147.5c-28.9,18.6-54.9,41.7-83,67.1l-46.8,41.3C632.4,303.8,326,473,326,473
	C122.3,431.8,72.6,173.8,72.6,173.8H236.1z"/>
<rect x="190.3" y="96.7" class="st9" width="173" height="58"/>
<rect x="363.3" y="96.7" class="st8" width="167" height="58"/>
<rect x="530.3" y="96.7" class="st9" width="174" height="58"/>
<rect x="704.3" y="96.7" class="st9" width="167" height="58"/>
<rect x="1039.3" y="96.7" class="st6" width="171" height="58"/>
<rect x="704.3" y="35.7" class="st8" width="167" height="61"/>
<rect x="871.3" y="35.7" class="st6" width="168" height="61"/>
<rect x="1039.3" y="35.7" class="st6" width="171" height="61"/>
<line class="st11" x1="662.5" y1="230.7" x2="146.9" y2="230.7"/>
<line class="st11" x1="1319.3" y1="230.7" x2="1191.3" y2="230.7"/>
<path class="st12" d="M1215.2,295.6l-5.5,26v0.1l5.5,26c0,0,57.3,101.5,187.5,57.3s114.6-83.3,327.7-83.3v-0.1
	c-213.2,0-197.6-39.1-327.7-83.3S1215.2,295.6,1215.2,295.6z"/>
<path class="st13" d="M1467.3,321.7c0.2-0.1-189.3-127.9-265-0.2v0.4C1278,449.5,1467.5,321.8,1467.3,321.7z"/>
<path class="st14" d="M1211.6,312.9l-1.9,8.8v0l1.9,8.8c0,0,19.3,34.2,63.1,19.3c43.8-14.9,38.5-28,110.3-28v0
	c-71.7,0-66.5-13.1-110.3-28C1230.8,278.7,1211.6,312.9,1211.6,312.9z"/>
<path class="st10" d="M1052.1,358.9H1219v-74.5h-166.9c-16.7,0-30.2,16.5-30.2,36.9v0.7C1021.9,342.4,1035.4,358.9,1052.1,358.9z"/>
<path class="st15" d="M209.3,268.4h4.6l12.2,35.9h-4.6l-3.4-10.8h-13.2l-3.5,10.8h-4.3L209.3,268.4z M206.2,289.4h10.6l-5.2-16.7
	h-0.1L206.2,289.4z"/>
<path class="st15" d="M243.7,268.4h5.7l9.8,30.1l9.9-30.1h5.7v35.9h-3.9v-29.8h-0.1l-9.8,29.8h-3.5l-9.8-29.8h-0.1v29.8h-3.9V268.4z
	"/>
<path class="st15" d="M304.6,268.4h4.6l12.2,35.9h-4.6l-3.4-10.8h-13.2l-3.5,10.8h-4.3L304.6,268.4z M301.5,289.4h10.6l-5.2-16.7
	h-0.1L301.5,289.4z"/>
<path class="st15" d="M336.5,300.2l19.4-27.8H338v-4h22.8v4l-19.4,27.8h19.9v4h-24.8V300.2z"/>
<path class="st15" d="M393.3,267.5c9.9,0,15,9,15,18.8s-5,18.8-15,18.8c-9.9,0-15-9-15-18.8S383.3,267.5,393.3,267.5z M393.3,301.1
	c7.6,0,10.8-7.5,10.8-14.8s-3.2-14.8-10.8-14.8s-10.8,7.5-10.8,14.8S385.7,301.1,393.3,301.1z"/>
<path class="st15" d="M427.7,268.4h4.4l16.4,29.1h0.1v-29.1h3.9v35.9H448l-16.3-28.8h-0.1v28.8h-3.9V268.4z"/>
<path d="M498.3,268.4h23.4v6.6h-16.5v7.7h15.1v6.1h-15.1v8.8H522v6.6h-23.7V268.4z"/>
<path d="M561.9,280.4c-0.4-3.6-3.4-6.3-6.8-6.3c-6.2,0-8.5,6-8.5,12.3c0,6,2.3,12,8.5,12c4.2,0,6.6-3.3,7.1-8h6.6
	c-0.7,8.9-6.1,14.7-13.7,14.7c-9.7,0-15.3-8.3-15.3-18.6c0-10.6,5.7-18.9,15.3-18.9c6.9,0,12.6,4.6,13.5,12.9H561.9z"/>
<path d="M592.6,292.3c0,4.8,3.2,6.6,6.9,6.6c2.4,0,6.1-0.8,6.1-4.5c0-3.9-4.7-4.5-9.3-5.9c-4.6-1.4-9.3-3.5-9.3-10.2
	c0-7.3,6-10.8,11.7-10.8c6.5,0,12.5,3.3,12.5,11.6h-6.6c-0.2-4.3-2.9-5.4-6.2-5.4c-2.2,0-4.7,1.1-4.7,4.1c0,2.8,1.5,3.1,9.3,5.4
	c2.3,0.7,9.3,2.3,9.3,10.4c0,6.6-4.5,11.5-13,11.5c-6.9,0-13.4-3.9-13.3-12.8H592.6z"/>
<path class="st0" d="M1433.5,218.3c-4.6,3.1-3.8,10.1,1.4,12.1c26.8,10.5,46.9,20.4,65,29.5c52,25.9,86.3,43,229.6,43h13.1
	c3.8,0,6.9,3.1,6.9,6.9v26.4c0,3.8-3.1,6.9-6.9,6.9h-13.1c-143.3,0-177.6,17.1-229.6,43c-23.7,11.8-50.7,25.3-91.8,39.2
	c-23.9,8.1-47.2,12.2-69.4,12.2c0,0,0,0,0,0c-34.4,0-65.9-9.6-93.8-28.6c-12.7-8.7-22.8-18.2-30.4-26.4c-1.3-1.4-3.1-2.2-5.1-2.2
	l-158.4,0c-8.6,0-17.3-2.2-24.4-7.1c-2.2-1.5-5.1-1.6-7.4-0.2c-54.3,32.8-95.6,67.1-96,67.5l-3.7,3.1c-1.2,1-2.8,1.6-4.4,1.6
	l-255.3,0c-2.6,0-5-1.5-6.2-3.8l-21-42.9c-1.4-2.9-4.6-4.4-7.7-3.7c-194.5,45.3-289.4,96.7-290.3,97.2l-4.2,2.3
	c-1.4,0.8-3.1,1-4.7,0.7l-4.7-1c-50-10.1-95.4-33.3-134.9-68.9c-31.2-28.1-58.7-63.8-81.8-106.2c-38.9-71.6-51.9-137.2-52.4-139.9
	l-0.5-2.7c-2.1-10.9,6.3-21.1,17.4-21.1h93.6c3.8,0,6.9-3.1,6.9-6.9V96.8c0-10.4,8.4-18.8,18.8-18.8h488.3c3.8,0,6.9-3.1,6.9-6.9
	V35.7c0-10.4,8.4-18.7,18.7-18.7H1209c11.2,0,20.2,9,20.2,20.2v97.3c0,4.7,4.5,8,9,6.5l94.5-30.3c1.2-0.4,2.3-1.1,3.2-2.1l29.6-35.6
	c1.5-1.9,3.8-2.9,6.3-2.9H1495c14.5,0,22.7,16.5,14.1,28.1l-36.4,49.2c-1.3,1.7-3.3,2.8-5.5,2.8h-25.9c-5.1,0-8.5,5.4-6.1,10
	l17.2,33.8c3.1,6,3.7,8.6-2.7,13.2l0,0C1448.6,207.9,1440.9,213.2,1433.5,218.3L1433.5,218.3"/>
<path class="st16" d="M1456,201.2"/>
<path class="st16" d="M1433.5,218"/>
<path class="st16" d="M1398.2,227.1"/>
<path class="st16" d="M1458.2,204.9"/>
<path class="st16" d="M1447.3,183.8"/>
<path class="st17" d="M1456.8,202.4"/>
<path class="st17" d="M1428.9,221.4"/>
</svg>
